<?xml version="1.0" standalone="no"?><!DOCTYPE svg PUBLIC "-//W3C//DTD SVG 1.1//EN" "http://www.w3.org/Graphics/SVG/1.1/DTD/svg11.dtd"><svg width="100%" height="100%" viewBox="0 0 368 369" version="1.1" xmlns="http://www.w3.org/2000/svg" xmlns:xlink="http://www.w3.org/1999/xlink" xml:space="preserve" style="fill-rule:evenodd;clip-rule:evenodd;stroke-linejoin:round;stroke-miterlimit:1.41421;"><path d="M366.523,207.056l-46.649,0l-66.88,0l0,161.044l-46.013,0l0,-161.044l-23.006,0l0,-46.012l23.006,0l0,-113.018l0,-46.59c90.703,11.369 160.969,88.851 160.969,182.614c0,7.791 -0.485,15.469 -1.427,23.006ZM160.969,161.044l23.006,0l0,46.012l-23.006,0l0,159.608c-90.703,-11.369 -160.969,-88.851 -160.969,-182.614c0,-7.791 0.485,-15.469 1.427,-23.006l113.529,0l0,-161.044l46.013,0l0,161.044ZM114.956,207.056l-66.88,0c6.92,41.153 32.086,76.147 66.88,96.366l0,-96.366ZM319.874,161.044c-6.92,-41.153 -32.086,-76.147 -66.88,-96.366l0,96.366l66.88,0Z" style="fill:#00a0c3;"/></svg>